<?xml version="1.0" standalone="no"?>
<!DOCTYPE svg PUBLIC "-//W3C//DTD SVG 20010904//EN"
 "http://www.w3.org/TR/2001/REC-SVG-20010904/DTD/svg10.dtd">
<svg version="1.0" xmlns="http://www.w3.org/2000/svg"
 width="512.000000pt" height="512.000000pt" viewBox="0 0 512.000000 512.000000"
 preserveAspectRatio="xMidYMid meet">
<metadata>
Created by potrace 1.11, written by Peter Selinger 2001-2013
</metadata>
<g transform="translate(0.000000,512.000000) scale(0.100000,-0.100000)"
fill="#000000" stroke="none">
<path d="M3488 5045 c-3 -3 -29 -8 -57 -10 -29 -3 -56 -7 -60 -9 -4 -3 -21 -8
-37 -10 -53 -10 -69 -14 -129 -36 -33 -12 -67 -23 -75 -25 -39 -9 -105 -38
-350 -158 -102 -50 -187 -91 -190 -92 -3 0 -14 -6 -25 -12 -11 -6 -87 -46
-170 -88 -82 -43 -175 -91 -205 -108 -30 -17 -64 -35 -75 -41 -11 -6 -39 -26
-64 -43 -24 -18 -48 -33 -53 -33 -12 0 -3 53 18 115 8 26 14 48 12 50 -5 5
-136 -31 -180 -50 -21 -8 -38 -13 -38 -11 0 3 -43 -19 -96 -49 -53 -30 -98
-55 -100 -55 -1 0 -65 -39 -140 -86 -111 -68 -263 -177 -420 -300 -14 -12 -54
-150 -54 -189 0 -12 -3 -25 -7 -29 -5 -4 -9 -16 -9 -27 -1 -10 -2 -25 -3 -32
0 -7 -25 -21 -53 -31 -29 -10 -66 -24 -83 -31 -16 -7 -61 -26 -100 -41 -107
-44 -303 -151 -323 -177 -5 -7 -17 -34 -27 -62 -9 -27 -26 -63 -35 -80 -31
-52 -127 -371 -161 -534 -5 -23 -13 -59 -18 -80 -5 -20 -12 -52 -15 -71 -7
-42 -14 -76 -20 -98 -3 -9 -7 -37 -10 -62 -3 -25 -8 -54 -10 -65 -18 -94 -27
-310 -16 -395 2 -19 15 -45 28 -57 46 -45 101 -23 144 57 34 64 54 88 41 50
-10 -29 -9 -147 2 -204 9 -54 20 -79 39 -95 9 -8 16 -29 16 -50 0 -35 -5 -41
-70 -85 -135 -93 -231 -226 -258 -361 -11 -55 -7 -220 7 -265 46 -156 102
-260 182 -340 119 -119 307 -212 480 -237 64 -9 208 -9 254 0 53 10 163 52
199 76 l29 20 50 -72 c88 -128 190 -245 224 -258 24 -9 48 -14 113 -25 19 -3
38 -8 41 -10 4 -2 26 -6 50 -9 24 -3 60 -7 79 -10 210 -28 946 -28 1091 0 13
3 57 7 97 11 40 3 81 7 92 9 10 2 40 7 67 11 26 3 57 8 68 10 42 8 141 25 165
29 41 6 84 15 100 21 8 3 27 7 42 9 15 2 46 9 70 16 24 7 50 13 58 14 28 4
165 44 250 73 168 58 372 152 608 279 117 64 144 93 166 178 10 39 21 79 26
90 9 21 20 77 25 130 2 17 6 55 9 85 23 216 31 400 22 520 -12 159 -19 186
-46 195 -10 3 -41 30 -67 59 -55 59 -75 113 -97 256 -13 80 -14 261 -2 305 28
105 43 182 40 199 -7 38 -12 61 -29 131 -9 39 -18 77 -20 85 -15 64 -39 147
-51 178 -27 66 -31 76 -53 125 -11 26 -21 50 -21 52 0 6 44 -1 105 -16 22 -5
51 -12 64 -15 14 -3 28 -7 33 -10 12 -8 10 26 -7 86 -8 30 -17 62 -19 70 -2 8
-9 28 -15 43 -6 16 -11 32 -11 36 0 11 98 25 165 25 84 -1 269 -19 285 -29 8
-5 67 -17 95 -19 18 -1 20 5 20 59 0 53 -8 141 -17 200 -2 11 -7 26 -11 33 -5
6 -6 12 -3 12 12 0 -93 259 -114 280 -3 3 -19 25 -35 50 -32 49 -189 210 -204
210 -5 0 -16 7 -24 15 -23 22 -128 81 -169 94 -21 7 -38 16 -38 19 0 4 23 23
50 42 27 19 50 38 50 43 0 4 6 7 14 7 8 0 16 4 18 9 2 5 43 35 92 66 49 32
120 82 159 111 39 29 80 54 91 56 10 2 21 8 23 13 4 13 -197 92 -257 100 -25
4 -58 9 -75 11 -16 3 -46 7 -65 9 -19 3 -57 8 -85 11 -90 12 -329 6 -426 -11
-13 -2 -44 -6 -69 -9 -25 -3 -70 -8 -100 -11 -98 -11 -114 -14 -175 -25 -103
-19 -223 -50 -278 -71 -28 -12 -59 -22 -67 -24 -8 -2 -24 -7 -34 -11 -19 -7
-19 -7 0 27 12 19 42 70 68 114 26 44 67 109 91 144 49 69 55 95 26 111 -22
11 -26 12 -33 5z"/>
</g>
</svg>
