<?xml version="1.0" encoding="utf-8"?>
<!-- Generator: Adobe Illustrator 18.0.0, SVG Export Plug-In . SVG Version: 6.00 Build 0)  -->
<!DOCTYPE svg PUBLIC "-//W3C//DTD SVG 1.1//EN" "http://www.w3.org/Graphics/SVG/1.1/DTD/svg11.dtd">
<svg version="1.1" id="Layer_1" xmlns="http://www.w3.org/2000/svg" xmlns:xlink="http://www.w3.org/1999/xlink" x="0px" y="0px"
	 viewBox="0 0 279 91.3" enable-background="new 0 0 279 91.3" xml:space="preserve">
<g>
	<g>
		<path fill="#FFFFFF" d="M69.2,46c-0.1-6.4,5.3-9.6,5.5-9.7c-3-4.4-7.7-5-9.4-5.1c-3.9-0.4-7.7,2.4-9.8,2.4c-2,0-5.1-2.3-8.5-2.2
			c-4.3,0.1-8.3,2.5-10.5,6.4c-4.5,7.8-1.2,19.4,3.2,25.7c2.2,3.1,4.7,6.6,8,6.5c3.2-0.1,4.5-2.1,8.4-2.1c3.9,0,5,2.1,8.4,2
			c3.5-0.1,5.7-3.1,7.8-6.3c2.5-3.6,3.5-7.1,3.6-7.2C75.9,56.3,69.2,53.7,69.2,46z"/>
		<path fill="#FFFFFF" d="M62.8,27c1.7-2.2,2.9-5.2,2.6-8.2c-2.5,0.1-5.7,1.8-7.5,3.9c-1.6,1.9-3.1,5-2.7,7.9
			C58,30.8,60.9,29.2,62.8,27z"/>
	</g>
</g>
<g>
	<path fill="#A2A2A2" d="M264.9,85.7H14c-5.2,0-9.5-4.3-9.5-9.5V15.1c0-5.2,4.2-9.5,9.5-9.5h250.9c5.2,0,9.6,4.2,9.6,9.5v61.1
		C274.5,81.4,270.1,85.7,264.9,85.7L264.9,85.7z"/>
	<path d="M272.6,76.2c0,4.2-3.4,7.7-7.7,7.7H14c-4.2,0-7.7-3.4-7.7-7.7V15.1c0-4.2,3.4-7.7,7.7-7.7h250.9c4.2,0,7.7,3.4,7.7,7.7
		L272.6,76.2L272.6,76.2z"/>
	<g>
		<g>
			<path fill="#FFFFFF" d="M64.8,45.2c-0.1-6.4,5.3-9.6,5.5-9.7c-3-4.4-7.7-5-9.4-5.1c-3.9-0.4-7.8,2.4-9.8,2.4
				c-2,0-5.1-2.3-8.5-2.2c-4.3,0.1-8.3,2.5-10.5,6.4c-4.5,7.8-1.2,19.4,3.2,25.7c2.2,3.1,4.7,6.6,8,6.5c3.2-0.1,4.5-2.1,8.4-2.1
				c3.9,0,5,2.1,8.4,2c3.5-0.1,5.7-3.1,7.8-6.3c2.5-3.6,3.5-7.1,3.6-7.2C71.5,55.5,64.8,53,64.8,45.2z"/>
			<path fill="#FFFFFF" d="M58.4,26.3c1.7-2.2,2.9-5.2,2.6-8.2c-2.5,0.1-5.7,1.8-7.5,3.9c-1.6,1.9-3.1,5-2.7,7.9
				C53.6,30.1,56.5,28.4,58.4,26.3z"/>
		</g>
	</g>
	<g>
		<path fill="#FFFFFF" d="M111.8,68.7h-4.5l-2.5-7.8h-8.6l-2.4,7.8h-4.4l8.6-26.6h5.3L111.8,68.7z M104,57.6l-2.2-7
			c-0.2-0.7-0.7-2.4-1.3-5h-0.1c-0.3,1.1-0.7,2.8-1.3,5l-2.2,7H104z"/>
		<path fill="#FFFFFF" d="M133.8,58.8c0,3.3-0.9,5.8-2.6,7.7c-1.6,1.7-3.5,2.5-5.9,2.5c-2.5,0-4.3-0.9-5.4-2.7h-0.1v10.1h-4.3V55.8
			c0-2.1-0.1-4.2-0.2-6.3h3.8l0.2,3h0.1c1.4-2.3,3.6-3.4,6.5-3.4c2.3,0,4.2,0.9,5.7,2.7C133.1,53.6,133.8,55.9,133.8,58.8z
			 M129.5,59c0-1.9-0.4-3.4-1.3-4.6c-0.9-1.3-2.2-1.9-3.7-1.9c-1.1,0-2,0.4-2.9,1c-0.9,0.7-1.4,1.6-1.7,2.7c-0.1,0.5-0.2,1-0.2,1.3
			v3.2c0,1.4,0.4,2.6,1.3,3.5s2,1.4,3.3,1.4c1.6,0,2.9-0.6,3.7-1.9C129,62.7,129.5,61,129.5,59z"/>
		<path fill="#FFFFFF" d="M155.9,58.8c0,3.3-0.9,5.8-2.6,7.7c-1.6,1.7-3.5,2.5-5.9,2.5c-2.5,0-4.3-0.9-5.4-2.7h-0.1v10.1h-4.3V55.8
			c0-2.1-0.1-4.2-0.2-6.3h3.8l0.2,3h0.1c1.4-2.3,3.6-3.4,6.5-3.4c2.3,0,4.2,0.9,5.7,2.7C155.2,53.6,155.9,55.9,155.9,58.8z
			 M151.6,59c0-1.9-0.4-3.4-1.3-4.6c-0.9-1.3-2.2-1.9-3.7-1.9c-1.1,0-2,0.4-2.9,1c-0.9,0.7-1.4,1.6-1.7,2.7c-0.1,0.5-0.2,1-0.2,1.3
			v3.2c0,1.4,0.4,2.6,1.3,3.5c0.9,1,2,1.4,3.3,1.4c1.6,0,2.9-0.6,3.8-1.9C151.1,62.7,151.6,61,151.6,59z"/>
		<path fill="#FFFFFF" d="M180.6,61.2c0,2.3-0.8,4.1-2.4,5.5c-1.7,1.6-4.1,2.3-7.2,2.3c-2.9,0-5.2-0.6-6.9-1.7l1-3.6
			c1.9,1.1,3.9,1.7,6.2,1.7c1.6,0,2.9-0.4,3.8-1.1c0.9-0.7,1.3-1.7,1.3-2.9c0-1.1-0.4-2-1.1-2.7c-0.7-0.7-2-1.4-3.7-2.1
			c-4.7-1.7-7-4.3-7-7.6c0-2.2,0.8-4,2.4-5.4c1.6-1.4,3.8-2.1,6.5-2.1c2.4,0,4.4,0.4,6,1.3l-1.1,3.5c-1.5-0.8-3.2-1.2-5.1-1.2
			c-1.5,0-2.7,0.4-3.5,1.1c-0.7,0.7-1.1,1.5-1.1,2.4c0,1.1,0.4,1.9,1.2,2.6c0.7,0.6,2,1.3,3.9,2.1c2.3,0.9,4,2,5.1,3.2
			C180.1,57.8,180.6,59.4,180.6,61.2z"/>
		<path fill="#FFFFFF" d="M194.7,52.7H190V62c0,2.4,0.8,3.6,2.5,3.6c0.8,0,1.4-0.1,1.9-0.2l0.1,3.2c-0.8,0.3-1.9,0.5-3.3,0.5
			c-1.7,0-3-0.5-3.9-1.5c-0.9-1-1.4-2.8-1.4-5.2v-9.7H183v-3.2h2.8V46l4.2-1.3v4.8h4.7L194.7,52.7z"/>
		<path fill="#FFFFFF" d="M215.9,58.9c0,3-0.8,5.4-2.5,7.3c-1.8,1.9-4.1,2.9-7,2.9c-2.8,0-5.1-0.9-6.7-2.8s-2.5-4.2-2.5-7.1
			c0-3,0.9-5.4,2.6-7.3c1.7-1.9,4-2.8,7-2.8c2.8,0,5.1,0.9,6.8,2.8C215.1,53.7,215.9,56.1,215.9,58.9z M211.5,59.1
			c0-1.8-0.4-3.3-1.1-4.6c-0.9-1.5-2.2-2.3-3.8-2.3c-1.7,0-3,0.8-3.9,2.3c-0.8,1.3-1.1,2.8-1.1,4.6c0,1.8,0.4,3.3,1.1,4.6
			c0.9,1.5,2.2,2.3,3.9,2.3c1.6,0,2.9-0.8,3.8-2.3C211.1,62.4,211.5,60.8,211.5,59.1z"/>
		<path fill="#FFFFFF" d="M229.8,53.2c-0.4-0.1-0.9-0.1-1.3-0.1c-1.5,0-2.7,0.6-3.5,1.7c-0.7,1-1.1,2.3-1.1,3.8v10.1h-4.3l0-13.1
			c0-2.2-0.1-4.2-0.2-6h3.7l0.2,3.7h0.1c0.4-1.3,1.2-2.3,2.1-3c0.9-0.7,2-1,3.1-1c0.4,0,0.8,0,1.1,0.1L229.8,53.2z"/>
		<path fill="#FFFFFF" d="M248.8,58.2c0,0.8-0.1,1.4-0.2,1.9h-12.8c0.1,1.9,0.7,3.3,1.9,4.3c1.1,0.9,2.5,1.3,4.2,1.3
			c1.9,0,3.6-0.3,5.2-0.9l0.7,3c-1.8,0.8-4,1.2-6.4,1.2c-3,0-5.3-0.9-7-2.6c-1.7-1.8-2.5-4.1-2.5-7c0-2.9,0.8-5.3,2.4-7.2
			c1.7-2.1,3.9-3.1,6.7-3.1c2.8,0,4.9,1,6.3,3.1C248.3,53.8,248.8,55.8,248.8,58.2z M244.8,57.1c0-1.3-0.2-2.4-0.8-3.3
			c-0.7-1.2-1.9-1.8-3.4-1.8c-1.4,0-2.5,0.6-3.4,1.7c-0.7,0.9-1.1,2-1.3,3.3L244.8,57.1L244.8,57.1z"/>
	</g>
	<g>
		<g>
			<path fill="#FFFFFF" d="M102.6,25.7c0,2.4-0.7,4.1-2.1,5.3c-1.3,1.1-3.2,1.6-5.6,1.6c-1.2,0-2.2-0.1-3.1-0.2V19.6
				c1.1-0.2,2.3-0.3,3.6-0.3c2.3,0,4,0.5,5.2,1.5C102,22,102.6,23.6,102.6,25.7z M100.4,25.7c0-1.5-0.4-2.7-1.2-3.5
				c-0.8-0.8-2-1.2-3.5-1.2c-0.7,0-1.2,0-1.7,0.1v9.8c0.3,0,0.7,0.1,1.4,0.1c1.6,0,2.8-0.4,3.7-1.3S100.4,27.5,100.4,25.7z"/>
			<path fill="#FFFFFF" d="M114.3,27.7c0,1.5-0.4,2.6-1.2,3.6c-0.9,1-2,1.4-3.5,1.4c-1.4,0-2.5-0.5-3.3-1.4
				c-0.8-0.9-1.2-2.1-1.2-3.5c0-1.5,0.4-2.7,1.3-3.6s2-1.4,3.4-1.4c1.4,0,2.5,0.5,3.3,1.4C113.9,25.2,114.3,26.3,114.3,27.7z
				 M112.2,27.8c0-0.9-0.2-1.6-0.6-2.2c-0.4-0.8-1.1-1.1-1.9-1.1c-0.8,0-1.5,0.4-1.9,1.1c-0.4,0.6-0.6,1.4-0.6,2.3
				c0,0.9,0.2,1.6,0.6,2.2c0.5,0.8,1.1,1.1,1.9,1.1c0.8,0,1.4-0.4,1.9-1.1C112,29.4,112.2,28.7,112.2,27.8z"/>
			<path fill="#FFFFFF" d="M130,23.1l-2.9,9.4h-1.9l-1.2-4.1c-0.3-1-0.6-2-0.8-3h0c-0.2,1-0.4,2-0.8,3l-1.3,4.1h-1.9l-2.8-9.4h2.2
				l1.1,4.5c0.3,1.1,0.5,2.1,0.6,3h0c0.2-0.8,0.4-1.8,0.8-3l1.3-4.5h1.7l1.3,4.4c0.3,1.1,0.6,2.1,0.8,3.1h0.1c0.1-1,0.4-2,0.6-3.1
				l1.1-4.4L130,23.1L130,23.1z"/>
			<path fill="#FFFFFF" d="M140.9,32.5h-2.1v-5.4c0-1.7-0.6-2.5-1.9-2.5c-0.6,0-1.1,0.2-1.5,0.7c-0.4,0.5-0.6,1-0.6,1.6v5.6h-2.1
				v-6.7c0-0.8,0-1.7-0.1-2.7h1.8l0.1,1.5h0.1c0.2-0.5,0.6-0.8,1.1-1.1c0.6-0.4,1.2-0.5,1.9-0.5c0.9,0,1.6,0.3,2.2,0.9
				c0.7,0.7,1.1,1.7,1.1,3.1V32.5z"/>
			<path fill="#FFFFFF" d="M146.7,32.5h-2.1V18.8h2.1V32.5z"/>
			<path fill="#FFFFFF" d="M159,27.7c0,1.5-0.4,2.6-1.2,3.6c-0.9,1-2,1.4-3.5,1.4c-1.4,0-2.5-0.5-3.3-1.4c-0.8-0.9-1.2-2.1-1.2-3.5
				c0-1.5,0.4-2.7,1.3-3.6s2-1.4,3.4-1.4c1.4,0,2.5,0.5,3.3,1.4C158.6,25.2,159,26.3,159,27.7z M156.9,27.8c0-0.9-0.2-1.6-0.6-2.2
				c-0.4-0.8-1.1-1.1-1.9-1.1c-0.8,0-1.5,0.4-1.9,1.1c-0.4,0.6-0.6,1.4-0.6,2.3c0,0.9,0.2,1.6,0.6,2.2c0.5,0.8,1.1,1.1,1.9,1.1
				c0.8,0,1.4-0.4,1.9-1.1C156.7,29.4,156.9,28.7,156.9,27.8z"/>
			<path fill="#FFFFFF" d="M169.2,32.5h-1.9l-0.2-1.1h-0.1c-0.6,0.9-1.6,1.3-2.8,1.3c-0.9,0-1.6-0.3-2.2-0.9
				c-0.5-0.5-0.7-1.2-0.7-1.9c0-1.2,0.5-2,1.4-2.6c1-0.6,2.3-0.9,4.1-0.9v-0.2c0-1.2-0.7-1.9-2-1.9c-0.9,0-1.8,0.2-2.5,0.7l-0.4-1.4
				c0.9-0.5,2-0.8,3.2-0.8c2.5,0,3.7,1.3,3.7,3.9v3.5C169,31.2,169.1,32,169.2,32.5z M167,29.3v-1.5c-2.3,0-3.5,0.6-3.5,1.9
				c0,0.5,0.1,0.9,0.4,1.1c0.3,0.2,0.6,0.4,1,0.4c0.5,0,0.9-0.1,1.3-0.4c0.4-0.3,0.6-0.7,0.7-1.1C167,29.6,167,29.4,167,29.3z"/>
			<path fill="#FFFFFF" d="M181.1,32.5h-1.9l-0.1-1.5h-0.1c-0.6,1.2-1.6,1.7-3,1.7c-1.1,0-2.1-0.4-2.8-1.3s-1.1-2-1.1-3.5
				c0-1.5,0.4-2.8,1.2-3.7c0.8-0.9,1.8-1.3,2.9-1.3c1.3,0,2.2,0.4,2.7,1.3h0v-5.4h2.1V30C181,30.9,181,31.8,181.1,32.5z M178.9,28.6
				V27c0-0.3,0-0.5-0.1-0.7c-0.1-0.5-0.4-0.9-0.8-1.3c-0.4-0.3-0.9-0.5-1.4-0.5c-0.8,0-1.4,0.3-1.8,0.9c-0.4,0.6-0.7,1.4-0.7,2.4
				c0,0.9,0.2,1.7,0.6,2.3c0.5,0.6,1.1,0.9,1.8,0.9c0.7,0,1.2-0.3,1.7-0.8C178.7,29.8,178.9,29.2,178.9,28.6z"/>
			<path fill="#FFFFFF" d="M199,27.7c0,1.5-0.4,2.6-1.2,3.6c-0.9,1-2,1.4-3.5,1.4c-1.4,0-2.5-0.5-3.3-1.4c-0.8-0.9-1.2-2.1-1.2-3.5
				c0-1.5,0.4-2.7,1.3-3.6s2-1.4,3.4-1.4c1.4,0,2.5,0.5,3.3,1.4C198.6,25.2,199,26.3,199,27.7z M196.8,27.8c0-0.9-0.2-1.6-0.6-2.2
				c-0.4-0.8-1.1-1.1-1.9-1.1c-0.8,0-1.5,0.4-1.9,1.1c-0.4,0.6-0.6,1.4-0.6,2.3c0,0.9,0.2,1.6,0.6,2.2c0.5,0.8,1.1,1.1,1.9,1.1
				c0.8,0,1.4-0.4,1.9-1.1C196.6,29.4,196.8,28.7,196.8,27.8z"/>
			<path fill="#FFFFFF" d="M210.3,32.5h-2.1v-5.4c0-1.7-0.6-2.5-1.9-2.5c-0.6,0-1.1,0.2-1.5,0.7s-0.6,1-0.6,1.6v5.6h-2.1v-6.7
				c0-0.8,0-1.7-0.1-2.7h1.8l0.1,1.5h0.1c0.2-0.5,0.6-0.8,1.1-1.1c0.6-0.4,1.2-0.5,1.9-0.5c0.9,0,1.6,0.3,2.2,0.9
				c0.7,0.7,1.1,1.7,1.1,3.1V32.5z"/>
			<path fill="#FFFFFF" d="M224.4,24.7h-2.3v4.6c0,1.2,0.4,1.7,1.2,1.7c0.4,0,0.7,0,0.9-0.1l0.1,1.6c-0.4,0.2-1,0.2-1.6,0.2
				c-0.8,0-1.5-0.3-1.9-0.8c-0.5-0.5-0.7-1.4-0.7-2.5v-4.8h-1.4v-1.6h1.4v-1.7l2.1-0.6v2.3h2.3L224.4,24.7L224.4,24.7z"/>
			<path fill="#FFFFFF" d="M235.5,32.5h-2.1v-5.4c0-1.7-0.6-2.5-1.9-2.5c-1,0-1.6,0.5-2,1.5c-0.1,0.2-0.1,0.5-0.1,0.8v5.7h-2.1V18.8
				h2.1v5.7h0c0.7-1,1.6-1.5,2.8-1.5c0.9,0,1.6,0.3,2.2,0.9c0.7,0.7,1.1,1.8,1.1,3.2L235.5,32.5z"/>
			<path fill="#FFFFFF" d="M246.9,27.4c0,0.4,0,0.7-0.1,1h-6.3c0,0.9,0.3,1.6,0.9,2.1c0.5,0.4,1.2,0.7,2.1,0.7
				c0.9,0,1.8-0.1,2.5-0.4l0.3,1.5c-0.9,0.4-1.9,0.6-3.2,0.6c-1.5,0-2.6-0.4-3.4-1.3c-0.8-0.9-1.2-2-1.2-3.5c0-1.4,0.4-2.6,1.2-3.5
				c0.8-1,1.9-1.5,3.3-1.5c1.4,0,2.4,0.5,3.1,1.5C246.6,25.2,246.9,26.2,246.9,27.4z M244.9,26.8c0-0.6-0.1-1.2-0.4-1.6
				c-0.4-0.6-0.9-0.9-1.7-0.9c-0.7,0-1.2,0.3-1.7,0.9c-0.3,0.5-0.6,1-0.6,1.6L244.9,26.8z"/>
		</g>
	</g>
</g>
</svg>
