<?xml version="1.0" encoding="utf-8"?>
<!-- Generator: Adobe Illustrator 18.0.0, SVG Export Plug-In . SVG Version: 6.00 Build 0)  -->
<!DOCTYPE svg PUBLIC "-//W3C//DTD SVG 1.1//EN" "http://www.w3.org/Graphics/SVG/1.1/DTD/svg11.dtd">
<svg version="1.1" id="Layer_1" xmlns="http://www.w3.org/2000/svg" xmlns:xlink="http://www.w3.org/1999/xlink" x="0px" y="0px"
	 viewBox="0 0 69 69" enable-background="new 0 0 69 69" xml:space="preserve">
<path fill="#FFFFFF" d="M34.5,2.1C16.6,2.1,2.1,16.6,2.1,34.5c0,17.9,14.5,32.4,32.4,32.4s32.4-14.5,32.4-32.4
	C66.9,16.6,52.4,2.1,34.5,2.1z M43.8,22.6l-3.4,0c-2.6,0-3.1,1.3-3.1,3.1v4h6.3l-0.8,6.3h-5.5v16.3h-6.5V36.1h-5.5v-6.3h5.5V25
	c0-5.4,3.3-8.4,8.2-8.4c2.3,0,4.3,0.2,4.9,0.2V22.6z"/>
</svg>
