<?xml version="1.0" encoding="utf-8"?>
<!-- Generator: Adobe Illustrator 18.0.0, SVG Export Plug-In . SVG Version: 6.00 Build 0)  -->
<!DOCTYPE svg PUBLIC "-//W3C//DTD SVG 1.1//EN" "http://www.w3.org/Graphics/SVG/1.1/DTD/svg11.dtd">
<svg version="1.1" id="Layer_1" xmlns="http://www.w3.org/2000/svg" xmlns:xlink="http://www.w3.org/1999/xlink" x="0px" y="0px"
	 viewBox="0 0 69 69" enable-background="new 0 0 69 69" xml:space="preserve">
<g>
	<path fill="#FFFFFF" d="M34.5,41.3c3.6,0,6.5-2.9,6.5-6.5c0-1-0.2-1.9-0.6-2.8c-1-2.2-3.3-3.7-5.9-3.7c-2.6,0-4.8,1.5-5.9,3.7
		c-0.4,0.8-0.6,1.8-0.6,2.8C28,38.4,30.9,41.3,34.5,41.3z"/>
	<path fill="#FFFFFF" d="M46.6,21.7H42c-0.5,0-0.9,0.4-0.9,0.9v4.2v0.5c0,0.5,0.4,0.9,0.9,0.9h0.5h4.2c0.5,0,0.9-0.4,0.9-0.9v-4.7
		C47.6,22.2,47.1,21.7,46.6,21.7z"/>
	<path fill="#FFFFFF" d="M44.8,34.8c0,5.7-4.6,10.3-10.3,10.3s-10.3-4.6-10.3-10.3c0-1,0.1-1.9,0.4-2.8h-3.2v14.9
		c0,0.5,0.4,0.9,0.9,0.9h24.2c0.5,0,0.9-0.4,0.9-0.9V32h-3.2C44.6,32.9,44.8,33.8,44.8,34.8z"/>
	<path fill="#FFFFFF" d="M34.5,2.1C16.6,2.1,2.1,16.6,2.1,34.5c0,17.9,14.5,32.4,32.4,32.4s32.4-14.5,32.4-32.4
		C66.9,16.6,52.4,2.1,34.5,2.1z M51.3,47c0,2.5-2.1,4.6-4.6,4.6H22.3c-2.5,0-4.6-2.1-4.6-4.6V22.6c0-2.5,2.1-4.6,4.6-4.6h24.3
		c2.5,0,4.6,2.1,4.6,4.6V47z"/>
</g>
</svg>
