<?xml version="1.0" encoding="utf-8"?>
<!-- Generator: Adobe Illustrator 18.0.0, SVG Export Plug-In . SVG Version: 6.00 Build 0)  -->
<!DOCTYPE svg PUBLIC "-//W3C//DTD SVG 1.1//EN" "http://www.w3.org/Graphics/SVG/1.1/DTD/svg11.dtd">
<svg version="1.1" id="Layer_1" xmlns="http://www.w3.org/2000/svg" xmlns:xlink="http://www.w3.org/1999/xlink" x="0px" y="0px"
	 viewBox="0 0 226.5 106" enable-background="new 0 0 226.5 106" xml:space="preserve">
<g>
	<g>
		<g>
			<path opacity="0.3" d="M184.4,100.6H28.9C14.6,100.6,3,89,3,74.7V44.5c0-14.3,11.6-25.9,25.9-25.9h155.5
				c14.3,0,25.9,11.6,25.9,25.9v30.2C210.3,89,198.7,100.6,184.4,100.6z"/>
			<linearGradient id="SVGID_1_" gradientUnits="userSpaceOnUse" x1="11.5631" y1="88.9341" x2="218.6188" y2="9.7812">
				<stop  offset="3.985970e-04" style="stop-color:#301A33"/>
				<stop  offset="1" style="stop-color:#67283C"/>
			</linearGradient>
			<path fill="url(#SVGID_1_)" d="M199,89.3H36.9c-12.5,0-22.6-10.1-22.6-22.6V29.8c0-12.5,10.1-22.6,22.6-22.6H199
				c12.5,0,22.6,10.1,22.6,22.6v36.9C221.7,79.2,211.5,89.3,199,89.3z"/>
			<g>
				<path fill="#ECFFE0" d="M199.2,91.1H36.8c-13.4,0-24.3-10.9-24.3-24.3V29.7c0-13.4,10.9-24.3,24.3-24.3h162.4
					c13.4,0,24.3,10.9,24.3,24.3v37.1C223.5,80.2,212.6,91.1,199.2,91.1z M36.8,9c-11.4,0-20.7,9.3-20.7,20.7v37.1
					c0,11.4,9.3,20.7,20.7,20.7h162.4c11.4,0,20.7-9.3,20.7-20.7V29.7c0-11.4-9.3-20.7-20.7-20.7H36.8z"/>
			</g>
		</g>
	</g>
	<g>
		<g opacity="0.43">
			<g>
				<path d="M66,43.8c0-4.4,2.1-6.6,6.3-6.6c4.2,0,6.3,2.2,6.3,6.6V48h-4.4v-4.2c0-1.4-0.6-2.1-1.9-2.1h0c-1.3,0-1.9,0.7-1.9,2.1
					v2.8c0,1.4,1.4,3.1,4.1,5.1c2.7,2,4.1,4.4,4.1,7.2v4c0,4.4-2.1,6.6-6.3,6.6c-4.2,0-6.3-2.2-6.3-6.6v-4.2h4.4v4.2
					c0,1.4,0.6,2.1,1.9,2.1c1.3,0,1.9-0.7,1.9-2.1v-3.6c0-1.5-1.4-3.3-4.1-5.3c-2.7-2-4.1-4.5-4.1-7.3V43.8z"/>
				<path d="M82.4,37.7h4.4V69h-4.4V37.7z"/>
				<path d="M103.2,62.9c0,4.4-2.1,6.6-6.3,6.6c-4.2,0-6.3-2.2-6.3-6.6V43.8c0-4.4,2.1-6.6,6.3-6.6c4.2,0,6.3,2.2,6.3,6.6V48h-4.4
					v-4.2c0-1.4-0.6-2.1-1.9-2.1h0c-1.3,0-1.9,0.7-1.9,2.1v19.1c0,1.4,0.6,2.1,1.9,2.1c1.3,0,1.9-0.7,1.9-2.1v-7.3h-2.2v-4.5h6.6
					V62.9z"/>
				<path d="M106.9,37.7h4.4l4.2,18.2V37.7h4.1V69h-4.4l-4-17.6V69h-4.2V37.7z"/>
				<path d="M143.9,62.9c0,4.4-2.1,6.6-6.3,6.6c-4.2,0-6.3-2.2-6.3-6.6V37.7h4.4v25.2c0,1.4,0.6,2.1,1.9,2.1c1.3,0,1.9-0.7,1.9-2.1
					V37.7h4.4V62.9z"/>
				<path d="M147.7,37.7h6.4c3.9,0,5.8,2.2,5.8,6.6V49c0,3.2-1.4,5.3-4.2,6.3c-0.7,0.2-1.6,0.3-2.9,0.3h-0.7V69h-4.4V37.7z
					 M152.1,42.2v9h1c0.6,0,1,0,1.3-0.1c0.8-0.3,1.2-1,1.2-2v-4.7c0-1.4-0.6-2.1-1.9-2.1H152.1z"/>
			</g>
		</g>
		<g>
			<g>
				<path fill="#CCFFCE" d="M68.8,39.3c0-4.4,2.1-6.6,6.4-6.6c4.2,0,6.4,2.2,6.4,6.6v4.3h-4.4v-4.3c0-1.4-0.6-2.1-1.9-2.1h0
					c-1.3,0-1.9,0.7-1.9,2.1v2.9c0,1.4,1.4,3.1,4.1,5.2c2.8,2,4.1,4.5,4.1,7.3v4c0,4.4-2.1,6.7-6.4,6.7c-4.2,0-6.4-2.2-6.4-6.7v-4.3
					h4.4v4.3c0,1.4,0.6,2.1,1.9,2.1c1.3,0,1.9-0.7,1.9-2.1V55c0-1.5-1.4-3.3-4.1-5.3c-2.8-2-4.1-4.5-4.1-7.4V39.3z"/>
				<path fill="#CCFFCE" d="M85.3,33.1h4.4v31.6h-4.4V33.1z"/>
				<path fill="#CCFFCE" d="M106.3,58.6c0,4.4-2.1,6.6-6.4,6.7c-4.2,0-6.4-2.2-6.4-6.7V39.3c0-4.4,2.1-6.6,6.4-6.6
					c4.2,0,6.4,2.2,6.4,6.6v4.3h-4.4v-4.3c0-1.4-0.6-2.1-1.9-2.1h0c-1.3,0-1.9,0.7-1.9,2.1v19.3c0,1.4,0.6,2.1,1.9,2.1
					c1.3,0,1.9-0.7,1.9-2.1v-7.4h-2.2v-4.5h6.7V58.6z"/>
				<path fill="#CCFFCE" d="M110.1,33.1h4.4l4.2,18.3V33.1h4.1v31.6h-4.4l-4-17.8v17.8h-4.3V33.1z"/>
				<path fill="#CCFFCE" d="M147.4,58.6c0,4.4-2.1,6.6-6.4,6.7c-4.2,0-6.4-2.2-6.4-6.7V33.1h4.4v25.5c0,1.4,0.6,2.1,1.9,2.1
					c1.3,0,1.9-0.7,1.9-2.1V33.1h4.4V58.6z"/>
				<path fill="#CCFFCE" d="M151.3,33.1h6.4c3.9,0,5.9,2.2,5.9,6.7v4.8c0,3.3-1.4,5.4-4.2,6.3c-0.7,0.2-1.7,0.3-3,0.3h-0.7v13.5
					h-4.4V33.1z M155.7,37.6v9.1h1c0.6,0,1,0,1.3-0.1c0.8-0.3,1.2-1,1.2-2v-4.8c0-1.4-0.6-2.2-1.9-2.2H155.7z"/>
			</g>
		</g>
	</g>
</g>
</svg>
