<?xml version="1.0" encoding="utf-8"?>
<!-- Generator: Adobe Illustrator 18.0.0, SVG Export Plug-In . SVG Version: 6.00 Build 0)  -->
<!DOCTYPE svg PUBLIC "-//W3C//DTD SVG 1.1//EN" "http://www.w3.org/Graphics/SVG/1.1/DTD/svg11.dtd">
<svg version="1.1" id="Layer_1" xmlns="http://www.w3.org/2000/svg" xmlns:xlink="http://www.w3.org/1999/xlink" x="0px" y="0px"
	 viewBox="0 0 69 69" enable-background="new 0 0 69 69" xml:space="preserve">
<g>
	<path fill="#FFFFFF" d="M34.5,2.1C16.6,2.1,2.1,16.6,2.1,34.5c0,17.9,14.5,32.4,32.4,32.4s32.4-14.5,32.4-32.4
		C66.9,16.6,52.4,2.1,34.5,2.1z M50,27.3c0,0.3,0,0.7,0,1c0,10.2-7.7,21.9-21.9,21.9c-4.3,0-8.4-1.3-11.8-3.5
		c0.6,0.1,1.2,0.1,1.8,0.1c3.6,0,6.9-1.2,9.6-3.3c-3.4-0.1-6.2-2.3-7.2-5.3c0.5,0.1,1,0.1,1.4,0.1c0.7,0,1.4-0.1,2-0.3
		c-3.5-0.7-6.2-3.8-6.2-7.5c0,0,0-0.1,0-0.1c1,0.6,2.2,0.9,3.5,1c-2.1-1.4-3.4-3.7-3.4-6.4c0-1.4,0.4-2.7,1-3.9
		c3.8,4.7,9.5,7.7,15.9,8c-0.1-0.6-0.2-1.2-0.2-1.8c0-4.3,3.4-7.7,7.7-7.7c2.2,0,4.2,0.9,5.6,2.4c1.8-0.3,3.4-1,4.9-1.9
		c-0.6,1.8-1.8,3.3-3.4,4.3c1.6-0.2,3-0.6,4.4-1.2C52.8,24.9,51.5,26.3,50,27.3z"/>
</g>
</svg>
